<?xml version="1.0" standalone="no"?>
<!DOCTYPE svg PUBLIC "-//W3C//DTD SVG 20010904//EN"
 "http://www.w3.org/TR/2001/REC-SVG-20010904/DTD/svg10.dtd">
<svg version="1.0" xmlns="http://www.w3.org/2000/svg"
 width="566.000000pt" height="566.000000pt" viewBox="0 0 566.000000 566.000000"
 preserveAspectRatio="xMidYMid meet">

<g transform="translate(0.000000,566.000000) scale(0.100000,-0.100000)"
fill="#18a058" stroke="none">
<path d="M4048 4995 c-40 -22 -48 -45 -48 -137 l0 -84 -82 -114 c-126 -178
-261 -342 -336 -410 -37 -34 -184 -149 -327 -257 -330 -250 -339 -256 -347
-267 -7 -10 -200 -3 -523 19 -348 24 -317 27 -415 -32 -83 -49 -231 -130 -475
-260 -66 -36 -128 -72 -137 -80 -42 -38 -3 -123 56 -123 29 0 253 116 639 330
l58 32 217 -16 c119 -9 304 -21 411 -27 l194 -11 47 34 c60 42 496 371 604
457 45 35 110 91 145 125 57 55 211 235 253 296 16 24 17 -79 17 -1786 l1
-1811 21 -27 20 -26 458 0 c449 0 459 0 485 21 l26 20 -2 2051 -3 2051 -28 21
c-28 21 -38 21 -465 23 -372 2 -441 0 -464 -12z m810 -1917 c-1 -975 -4 -1846
-6 -1935 l-3 -163 -344 0 -345 0 0 456 c0 301 3 453 10 449 6 -3 10 -2 10 4 0
5 -5 13 -10 16 -6 4 -10 58 -9 138 1 110 3 133 17 144 16 11 16 12 0 13 -14 0
-18 8 -18 35 0 25 4 33 14 29 7 -3 16 2 20 11 4 12 0 18 -13 22 -18 4 -20 17
-23 141 -2 76 -4 649 -5 1275 l0 1137 354 0 355 0 -4 -1772z"/>
<path d="M470 4820 c-20 -20 -20 -33 -20 -2164 l0 -2143 21 -27 20 -26 2449 0
2449 0 21 22 c25 28 26 78 1 109 l-19 24 -2385 0 c-1312 0 -2389 4 -2394 8 -4
5 -9 947 -11 2095 -2 1911 -4 2088 -19 2104 -23 25 -87 24 -113 -2z"/>
<path d="M2586 3185 l-26 -24 0 -1146 0 -1146 25 -24 24 -25 457 0 458 0 28
27 28 27 0 1143 0 1144 -25 24 -24 25 -459 0 -459 0 -27 -25z m837 -905 c0
-426 0 -893 -1 -1036 l-2 -262 -350 -1 c-192 -1 -350 0 -351 1 -1 2 -3 429 -5
950 -5 943 -5 946 16 991 11 24 32 50 45 57 14 7 25 17 25 22 0 14 -43 -12
-67 -41 l-22 -26 -1 63 0 62 356 -2 357 -3 0 -775z"/>
<path d="M1174 3030 c-57 -23 -54 39 -54 -1106 0 -1048 0 -1051 21 -1078 l20
-26 463 0 463 0 21 23 22 23 0 1065 0 1066 -23 21 c-23 22 -25 22 -468 21
-244 0 -454 -4 -465 -9z m804 -1096 l-3 -947 -347 -4 -348 -4 0 951 0 950 350
0 350 0 -2 -946z"/>
</g>
</svg>
